<mxfile host="app.diagrams.net" agent="Mozilla/5.0 (Windows NT 10.0; Win64; x64) AppleWebKit/537.36 (KHTML, like Gecko) Chrome/140.0.0.0 Safari/537.36 Edg/140.0.0.0" version="28.2.5">
  <diagram name="Страница — 1" id="Isnm7BPbnIDumnKhWaoU">
    <mxGraphModel dx="1725" dy="1648" grid="1" gridSize="10" guides="1" tooltips="1" connect="1" arrows="1" fold="1" page="1" pageScale="1" pageWidth="827" pageHeight="1169" math="0" shadow="0">
      <root>
        <mxCell id="0" />
        <mxCell id="1" parent="0" />
        <mxCell id="Mn8O-BJP6gQp2gCtDkNI-4" style="edgeStyle=orthogonalEdgeStyle;rounded=0;orthogonalLoop=1;jettySize=auto;html=1;exitX=0.5;exitY=1;exitDx=0;exitDy=0;entryX=0.5;entryY=0;entryDx=0;entryDy=0;" edge="1" parent="1" source="Mn8O-BJP6gQp2gCtDkNI-1" target="Mn8O-BJP6gQp2gCtDkNI-3">
          <mxGeometry relative="1" as="geometry" />
        </mxCell>
        <mxCell id="Mn8O-BJP6gQp2gCtDkNI-1" value="Начало" style="ellipse;whiteSpace=wrap;html=1;" vertex="1" parent="1">
          <mxGeometry x="150" y="180" width="120" height="60" as="geometry" />
        </mxCell>
        <mxCell id="Mn8O-BJP6gQp2gCtDkNI-7" style="edgeStyle=orthogonalEdgeStyle;rounded=0;orthogonalLoop=1;jettySize=auto;html=1;exitX=0.5;exitY=1;exitDx=0;exitDy=0;entryX=0.5;entryY=0;entryDx=0;entryDy=0;" edge="1" parent="1" source="Mn8O-BJP6gQp2gCtDkNI-3" target="Mn8O-BJP6gQp2gCtDkNI-6">
          <mxGeometry relative="1" as="geometry" />
        </mxCell>
        <mxCell id="Mn8O-BJP6gQp2gCtDkNI-3" value="int cur_pid = getpid()&lt;div&gt;int cur_p_pid = getppid()&lt;/div&gt;" style="rounded=0;whiteSpace=wrap;html=1;" vertex="1" parent="1">
          <mxGeometry x="120" y="280" width="180" height="60" as="geometry" />
        </mxCell>
        <mxCell id="Mn8O-BJP6gQp2gCtDkNI-9" style="edgeStyle=orthogonalEdgeStyle;rounded=0;orthogonalLoop=1;jettySize=auto;html=1;exitX=0.5;exitY=1;exitDx=0;exitDy=0;entryX=0.5;entryY=0;entryDx=0;entryDy=0;" edge="1" parent="1" source="Mn8O-BJP6gQp2gCtDkNI-6" target="Mn8O-BJP6gQp2gCtDkNI-8">
          <mxGeometry relative="1" as="geometry" />
        </mxCell>
        <mxCell id="Mn8O-BJP6gQp2gCtDkNI-6" value="cur_pid, cur_p_pid" style="shape=parallelogram;perimeter=parallelogramPerimeter;whiteSpace=wrap;html=1;fixedSize=1;" vertex="1" parent="1">
          <mxGeometry x="120" y="370" width="180" height="60" as="geometry" />
        </mxCell>
        <mxCell id="Mn8O-BJP6gQp2gCtDkNI-11" style="edgeStyle=orthogonalEdgeStyle;rounded=0;orthogonalLoop=1;jettySize=auto;html=1;exitX=0.5;exitY=1;exitDx=0;exitDy=0;entryX=0.5;entryY=0;entryDx=0;entryDy=0;" edge="1" parent="1" source="Mn8O-BJP6gQp2gCtDkNI-8" target="Mn8O-BJP6gQp2gCtDkNI-10">
          <mxGeometry relative="1" as="geometry" />
        </mxCell>
        <mxCell id="Mn8O-BJP6gQp2gCtDkNI-8" value="int new_pid = fork()" style="rounded=0;whiteSpace=wrap;html=1;" vertex="1" parent="1">
          <mxGeometry x="150" y="460" width="120" height="60" as="geometry" />
        </mxCell>
        <mxCell id="Mn8O-BJP6gQp2gCtDkNI-17" style="edgeStyle=orthogonalEdgeStyle;rounded=0;orthogonalLoop=1;jettySize=auto;html=1;entryX=0.5;entryY=0;entryDx=0;entryDy=0;" edge="1" parent="1" source="Mn8O-BJP6gQp2gCtDkNI-10" target="Mn8O-BJP6gQp2gCtDkNI-21">
          <mxGeometry relative="1" as="geometry">
            <mxPoint x="330" y="680" as="targetPoint" />
            <Array as="points">
              <mxPoint x="370" y="600" />
            </Array>
          </mxGeometry>
        </mxCell>
        <mxCell id="Mn8O-BJP6gQp2gCtDkNI-19" style="edgeStyle=orthogonalEdgeStyle;rounded=0;orthogonalLoop=1;jettySize=auto;html=1;exitX=0;exitY=0.5;exitDx=0;exitDy=0;entryX=0.5;entryY=0;entryDx=0;entryDy=0;" edge="1" parent="1" source="Mn8O-BJP6gQp2gCtDkNI-10" target="Mn8O-BJP6gQp2gCtDkNI-18">
          <mxGeometry relative="1" as="geometry" />
        </mxCell>
        <mxCell id="Mn8O-BJP6gQp2gCtDkNI-10" value="pid != 0" style="rhombus;whiteSpace=wrap;html=1;" vertex="1" parent="1">
          <mxGeometry x="120" y="560" width="180" height="80" as="geometry" />
        </mxCell>
        <mxCell id="Mn8O-BJP6gQp2gCtDkNI-28" style="edgeStyle=orthogonalEdgeStyle;rounded=0;orthogonalLoop=1;jettySize=auto;html=1;exitX=0.5;exitY=1;exitDx=0;exitDy=0;entryX=0.5;entryY=0;entryDx=0;entryDy=0;" edge="1" parent="1" source="Mn8O-BJP6gQp2gCtDkNI-12" target="Mn8O-BJP6gQp2gCtDkNI-25">
          <mxGeometry relative="1" as="geometry" />
        </mxCell>
        <mxCell id="Mn8O-BJP6gQp2gCtDkNI-12" value="main_pid, main_p_pid, new_pid" style="shape=parallelogram;perimeter=parallelogramPerimeter;whiteSpace=wrap;html=1;fixedSize=1;" vertex="1" parent="1">
          <mxGeometry x="-60" y="760" width="230" height="60" as="geometry" />
        </mxCell>
        <mxCell id="Mn8O-BJP6gQp2gCtDkNI-20" style="edgeStyle=orthogonalEdgeStyle;rounded=0;orthogonalLoop=1;jettySize=auto;html=1;exitX=0.5;exitY=1;exitDx=0;exitDy=0;entryX=0.5;entryY=0;entryDx=0;entryDy=0;" edge="1" parent="1" source="Mn8O-BJP6gQp2gCtDkNI-18" target="Mn8O-BJP6gQp2gCtDkNI-12">
          <mxGeometry relative="1" as="geometry" />
        </mxCell>
        <mxCell id="Mn8O-BJP6gQp2gCtDkNI-18" value="int main_pid = getpid()&lt;div&gt;int main_p_pid = getppid()&lt;/div&gt;" style="rounded=0;whiteSpace=wrap;html=1;" vertex="1" parent="1">
          <mxGeometry x="-25" y="640" width="160" height="60" as="geometry" />
        </mxCell>
        <mxCell id="Mn8O-BJP6gQp2gCtDkNI-24" style="edgeStyle=orthogonalEdgeStyle;rounded=0;orthogonalLoop=1;jettySize=auto;html=1;exitX=0.5;exitY=1;exitDx=0;exitDy=0;entryX=0.5;entryY=0;entryDx=0;entryDy=0;" edge="1" parent="1" source="Mn8O-BJP6gQp2gCtDkNI-21" target="Mn8O-BJP6gQp2gCtDkNI-23">
          <mxGeometry relative="1" as="geometry" />
        </mxCell>
        <mxCell id="Mn8O-BJP6gQp2gCtDkNI-21" value="int child_pid = get_pid()&lt;div&gt;int child_p_pid = getppid()&lt;/div&gt;" style="rounded=0;whiteSpace=wrap;html=1;" vertex="1" parent="1">
          <mxGeometry x="280" y="650" width="180" height="60" as="geometry" />
        </mxCell>
        <mxCell id="Mn8O-BJP6gQp2gCtDkNI-29" style="edgeStyle=orthogonalEdgeStyle;rounded=0;orthogonalLoop=1;jettySize=auto;html=1;exitX=0.5;exitY=1;exitDx=0;exitDy=0;entryX=0.5;entryY=0;entryDx=0;entryDy=0;" edge="1" parent="1" source="Mn8O-BJP6gQp2gCtDkNI-23" target="Mn8O-BJP6gQp2gCtDkNI-25">
          <mxGeometry relative="1" as="geometry">
            <Array as="points">
              <mxPoint x="370" y="870" />
              <mxPoint x="230" y="870" />
            </Array>
          </mxGeometry>
        </mxCell>
        <mxCell id="Mn8O-BJP6gQp2gCtDkNI-23" value="child_pid, child_p_pid" style="shape=parallelogram;perimeter=parallelogramPerimeter;whiteSpace=wrap;html=1;fixedSize=1;" vertex="1" parent="1">
          <mxGeometry x="280" y="770" width="180" height="60" as="geometry" />
        </mxCell>
        <mxCell id="Mn8O-BJP6gQp2gCtDkNI-27" style="edgeStyle=orthogonalEdgeStyle;rounded=0;orthogonalLoop=1;jettySize=auto;html=1;exitX=0.5;exitY=1;exitDx=0;exitDy=0;entryX=0.5;entryY=0;entryDx=0;entryDy=0;" edge="1" parent="1" source="Mn8O-BJP6gQp2gCtDkNI-25" target="Mn8O-BJP6gQp2gCtDkNI-26">
          <mxGeometry relative="1" as="geometry" />
        </mxCell>
        <mxCell id="Mn8O-BJP6gQp2gCtDkNI-25" value="int after_fork_pid = getpid()" style="rounded=0;whiteSpace=wrap;html=1;" vertex="1" parent="1">
          <mxGeometry x="135" y="890" width="190" height="60" as="geometry" />
        </mxCell>
        <mxCell id="Mn8O-BJP6gQp2gCtDkNI-31" style="edgeStyle=orthogonalEdgeStyle;rounded=0;orthogonalLoop=1;jettySize=auto;html=1;exitX=0.5;exitY=1;exitDx=0;exitDy=0;entryX=0.5;entryY=0;entryDx=0;entryDy=0;" edge="1" parent="1" source="Mn8O-BJP6gQp2gCtDkNI-26" target="Mn8O-BJP6gQp2gCtDkNI-30">
          <mxGeometry relative="1" as="geometry" />
        </mxCell>
        <mxCell id="Mn8O-BJP6gQp2gCtDkNI-26" value="after_fork_pid" style="shape=parallelogram;perimeter=parallelogramPerimeter;whiteSpace=wrap;html=1;fixedSize=1;" vertex="1" parent="1">
          <mxGeometry x="170" y="970" width="120" height="60" as="geometry" />
        </mxCell>
        <mxCell id="Mn8O-BJP6gQp2gCtDkNI-30" value="Конец" style="ellipse;whiteSpace=wrap;html=1;" vertex="1" parent="1">
          <mxGeometry x="170" y="1060" width="120" height="80" as="geometry" />
        </mxCell>
      </root>
    </mxGraphModel>
  </diagram>
</mxfile>
